<svg width="24" height="16" viewBox="0 0 24 16" fill="none" xmlns="http://www.w3.org/2000/svg">
<path fill-rule="evenodd" clip-rule="evenodd" d="M1 2C1 1.44772 1.44772 1 2 1H22C22.5523 1 23 1.44772 23 2C23 2.55228 22.5523 3 22 3H2C1.44772 3 1 2.55228 1 2ZM9 8C9 7.44772 9.44772 7 10 7L22 7C22.5523 7 23 7.44772 23 8C23 8.55229 22.5523 9 22 9L10 9C9.44771 9 9 8.55228 9 8ZM2 13C1.44772 13 1 13.4477 1 14C1 14.5523 1.44772 15 2 15L22 15C22.5523 15 23 14.5523 23 14C23 13.4477 22.5523 13 22 13L2 13Z" fill="#725AC1"/>
<path d="M10 7L10 6.5H10V7ZM22 7L22 7.5H22V7ZM22 9L22 9.5H22V9ZM10 9L10 8.5H10V9ZM2 13L2 13.5L2 13.5L2 13ZM2 15L2 15.5L2 15.5L2 15ZM22 15L22 14.5L22 14.5L22 15ZM22 13L22 12.5L22 12.5L22 13ZM2 0.5C1.17157 0.5 0.5 1.17157 0.5 2H1.5C1.5 1.72386 1.72386 1.5 2 1.5V0.5ZM22 0.5H2V1.5H22V0.5ZM23.5 2C23.5 1.17157 22.8284 0.5 22 0.5V1.5C22.2761 1.5 22.5 1.72386 22.5 2H23.5ZM22 3.5C22.8284 3.5 23.5 2.82843 23.5 2H22.5C22.5 2.27614 22.2761 2.5 22 2.5V3.5ZM2 3.5H22V2.5H2V3.5ZM0.5 2C0.5 2.82843 1.17157 3.5 2 3.5V2.5C1.72386 2.5 1.5 2.27614 1.5 2H0.5ZM10 6.5C9.17157 6.5 8.5 7.17157 8.5 8H9.5C9.5 7.72386 9.72386 7.5 10 7.5V6.5ZM22 6.5L10 6.5L10 7.5L22 7.5L22 6.5ZM23.5 8C23.5 7.17158 22.8284 6.5 22 6.5V7.5C22.2761 7.5 22.5 7.72386 22.5 8H23.5ZM22 9.5C22.8284 9.5 23.5 8.82843 23.5 8H22.5C22.5 8.27614 22.2761 8.5 22 8.5V9.5ZM10 9.5L22 9.5L22 8.5L10 8.5L10 9.5ZM8.5 8C8.5 8.82843 9.17157 9.5 10 9.5V8.5C9.72386 8.5 9.5 8.27614 9.5 8H8.5ZM1.5 14C1.5 13.7239 1.72386 13.5 2 13.5V12.5C1.17157 12.5 0.5 13.1716 0.5 14H1.5ZM2 14.5C1.72386 14.5 1.5 14.2761 1.5 14H0.5C0.5 14.8284 1.17157 15.5 2 15.5V14.5ZM22 14.5L2 14.5L2 15.5L22 15.5L22 14.5ZM22.5 14C22.5 14.2761 22.2761 14.5 22 14.5V15.5C22.8284 15.5 23.5 14.8284 23.5 14H22.5ZM22 13.5C22.2761 13.5 22.5 13.7239 22.5 14H23.5C23.5 13.1716 22.8284 12.5 22 12.5V13.5ZM2 13.5L22 13.5L22 12.5L2 12.5L2 13.5Z" fill="#725AC1"/>
</svg>
