<svg width="16" height="16" viewBox="0 0 16 16" fill="none" xmlns="http://www.w3.org/2000/svg">
<path d="M5.465 9.83C5.62125 9.94129 5.80834 10.001 6.00016 10.0008C6.19198 10.0006 6.37896 9.94058 6.535 9.829C6.69177 9.7133 6.81049 9.5535 6.876 9.37L7.223 8.303C7.30609 8.05154 7.44685 7.82301 7.63403 7.63565C7.82121 7.4483 8.04962 7.30733 8.301 7.224L9.387 6.871C9.56912 6.80568 9.72611 6.68477 9.83578 6.52537C9.94545 6.36597 10.0023 6.17613 9.99817 5.98269C9.99408 5.78925 9.9293 5.60198 9.81299 5.44736C9.69668 5.29274 9.53472 5.17857 9.35 5.121L8.281 4.775C8.02943 4.6919 7.80077 4.55115 7.61325 4.36399C7.42574 4.17682 7.28457 3.94842 7.201 3.697L6.848 2.613C6.78432 2.43375 6.66646 2.27874 6.51076 2.16945C6.35506 2.06015 6.16923 2.00198 5.979 2.003C5.78615 2.00218 5.59793 2.06198 5.44091 2.17396C5.2839 2.28593 5.16605 2.44441 5.104 2.627L4.748 3.717C4.6644 3.96097 4.52671 4.18286 4.34522 4.36608C4.16373 4.5493 3.94316 4.68909 3.7 4.775L2.616 5.126C2.43491 5.19 2.27829 5.3089 2.16797 5.46612C2.05766 5.62335 1.99914 5.81107 2.00057 6.00314C2.002 6.1952 2.06331 6.38203 2.17596 6.5376C2.2886 6.69316 2.44698 6.80971 2.629 6.871L3.696 7.218C3.94784 7.30231 4.17661 7.44405 4.36423 7.63201C4.55185 7.81997 4.69316 8.04901 4.777 8.301L5.129 9.381C5.192 9.561 5.31 9.718 5.466 9.829L5.465 9.83ZM10.535 13.851C10.6707 13.947 10.8328 13.9987 10.999 13.999C11.1668 13.9969 11.3298 13.9429 11.4657 13.8444C11.6016 13.7459 11.7037 13.6078 11.758 13.449L12.006 12.687C12.0581 12.5283 12.1468 12.3841 12.265 12.266C12.3831 12.1479 12.5273 12.0591 12.686 12.007L13.458 11.755C13.6177 11.7003 13.7559 11.5964 13.853 11.4583C13.9501 11.3202 14.001 11.1549 13.9984 10.9862C13.9959 10.8174 13.94 10.6537 13.8388 10.5186C13.7376 10.3835 13.5963 10.2839 13.435 10.234L12.671 9.985C12.5129 9.93236 12.3692 9.84372 12.2512 9.72607C12.1332 9.60841 12.0441 9.46495 11.991 9.307L11.739 8.533C11.6848 8.37405 11.5819 8.23619 11.445 8.13896C11.308 8.04173 11.144 7.99006 10.976 7.99128C10.8081 7.9925 10.6448 8.04654 10.5093 8.14574C10.3738 8.24494 10.2729 8.38428 10.221 8.544L9.974 9.306C9.92285 9.46255 9.83636 9.60522 9.72121 9.72297C9.60607 9.84071 9.46536 9.93037 9.31 9.985L8.534 10.238C8.41654 10.2788 8.31021 10.3465 8.22347 10.4356C8.13672 10.5247 8.07195 10.6328 8.03429 10.7514C7.99663 10.8699 7.98711 10.9955 8.0065 11.1184C8.0259 11.2412 8.07366 11.3578 8.146 11.459C8.245 11.599 8.385 11.704 8.546 11.759L9.309 12.006C9.46768 12.0591 9.61178 12.1485 9.72983 12.267C9.84788 12.3856 9.93663 12.5301 9.989 12.689L10.242 13.463C10.2968 13.6195 10.3998 13.755 10.535 13.851Z" fill="white"/>
</svg>
