<svg width="17" height="17" viewBox="0 0 17 17" fill="none" xmlns="http://www.w3.org/2000/svg">
<path d="M13.1205 8.57039L9.69332 7.30867L8.4316 3.87879C8.35688 3.6758 8.2217 3.50062 8.04429 3.37688C7.86688 3.25314 7.65579 3.18679 7.43949 3.18679C7.22319 3.18679 7.0121 3.25314 6.83469 3.37688C6.65728 3.50062 6.5221 3.6758 6.44738 3.87879L5.18433 7.30469L1.75445 8.56641C1.55147 8.64112 1.37628 8.77631 1.25254 8.95371C1.1288 9.13112 1.06245 9.34222 1.06245 9.55852C1.06245 9.77482 1.1288 9.98591 1.25254 10.1633C1.37628 10.3407 1.55147 10.4759 1.75445 10.5506L5.17969 11.8203L6.4414 15.2482C6.51612 15.4512 6.6513 15.6264 6.82871 15.7501C7.00612 15.8739 7.21721 15.9402 7.43351 15.9402C7.64981 15.9402 7.86091 15.8739 8.03831 15.7501C8.21572 15.6264 8.3509 15.4512 8.42562 15.2482L9.68734 11.821L13.1172 10.5593C13.3202 10.4845 13.4954 10.3494 13.6191 10.1719C13.7429 9.99454 13.8092 9.78345 13.8092 9.56715C13.8092 9.35085 13.7429 9.13975 13.6191 8.96235C13.4954 8.78494 13.3202 8.64976 13.1172 8.57504L13.1205 8.57039ZM9.32277 10.8242C9.17921 10.8769 9.04883 10.9602 8.9407 11.0684C8.83256 11.1765 8.74925 11.3069 8.69656 11.4504L7.43484 14.8677L6.17578 11.4478C6.12305 11.305 6.04 11.1753 5.93236 11.0676C5.82472 10.96 5.69503 10.877 5.55222 10.8242L2.13496 9.5625L5.55222 8.30078C5.69503 8.24805 5.82472 8.165 5.93236 8.05736C6.04 7.94972 6.12305 7.82003 6.17578 7.67723L7.4375 4.25996L8.69922 7.67723C8.75191 7.82079 8.83522 7.95117 8.94335 8.0593C9.05149 8.16744 9.18186 8.25074 9.32543 8.30344L12.7427 9.56516L9.32277 10.8242ZM9.5625 2.65625C9.5625 2.51535 9.61847 2.38023 9.7181 2.2806C9.81773 2.18097 9.95285 2.125 10.0937 2.125H11.1562V1.0625C11.1562 0.921604 11.2122 0.786478 11.3118 0.686849C11.4115 0.587221 11.5466 0.53125 11.6875 0.53125C11.8284 0.53125 11.9635 0.587221 12.0631 0.686849C12.1628 0.786478 12.2187 0.921604 12.2187 1.0625V2.125H13.2812C13.4221 2.125 13.5573 2.18097 13.6569 2.2806C13.7565 2.38023 13.8125 2.51535 13.8125 2.65625C13.8125 2.79715 13.7565 2.93227 13.6569 3.0319C13.5573 3.13153 13.4221 3.1875 13.2812 3.1875H12.2187V4.25C12.2187 4.3909 12.1628 4.52602 12.0631 4.62565C11.9635 4.72528 11.8284 4.78125 11.6875 4.78125C11.5466 4.78125 11.4115 4.72528 11.3118 4.62565C11.2122 4.52602 11.1562 4.3909 11.1562 4.25V3.1875H10.0937C9.95285 3.1875 9.81773 3.13153 9.7181 3.0319C9.61847 2.93227 9.5625 2.79715 9.5625 2.65625ZM16.4687 5.84375C16.4687 5.98465 16.4128 6.11977 16.3131 6.2194C16.2135 6.31903 16.0784 6.375 15.9375 6.375H15.4062V6.90625C15.4062 7.04715 15.3503 7.18227 15.2506 7.2819C15.151 7.38153 15.0159 7.4375 14.875 7.4375C14.7341 7.4375 14.599 7.38153 14.4993 7.2819C14.3997 7.18227 14.3437 7.04715 14.3437 6.90625V6.375H13.8125C13.6716 6.375 13.5365 6.31903 13.4368 6.2194C13.3372 6.11977 13.2812 5.98465 13.2812 5.84375C13.2812 5.70285 13.3372 5.56773 13.4368 5.4681C13.5365 5.36847 13.6716 5.3125 13.8125 5.3125H14.3437V4.78125C14.3437 4.64035 14.3997 4.50523 14.4993 4.4056C14.599 4.30597 14.7341 4.25 14.875 4.25C15.0159 4.25 15.151 4.30597 15.2506 4.4056C15.3503 4.50523 15.4062 4.64035 15.4062 4.78125V5.3125H15.9375C16.0784 5.3125 16.2135 5.36847 16.3131 5.4681C16.4128 5.56773 16.4687 5.70285 16.4687 5.84375Z" fill="#725AC1"/>
</svg>
